<svg width="849" height="849" viewBox="0 0 849 849" fill="none" xmlns="http://www.w3.org/2000/svg">
<path d="M848.798 619.197V229.789C848.798 102.88 745.941 0 619.06 0L229.738 0C102.857 0 0 102.88 0 229.789V619.197C0 746.106 102.857 848.986 229.738 848.986H619.06C745.941 848.986 848.798 746.106 848.798 619.197Z" fill="url(#paint0_linear)"/>
<path d="M652.057 305.548C622.798 305.472 594.43 315.609 571.842 334.21C549.254 352.812 533.862 378.712 528.32 407.448C526.557 405.122 524.57 402.872 522.658 400.734C514.854 392.386 505.59 385.535 495.323 380.52C484.774 375.292 473.316 372.147 461.577 371.256L494.048 304.198H427.53L371.286 420.949C370.011 423.537 368.811 426.125 367.762 428.788C365.361 423.734 362.499 418.913 359.212 414.386C349.617 401.05 336.687 390.471 321.716 383.707L360.262 304.198H242.15L219.24 363.83H265.51L231.763 434.451H283.545C287.893 434.416 292.204 435.258 296.219 436.926C300.059 438.512 303.569 440.802 306.568 443.677C309.665 446.551 312.207 449.971 314.067 453.766C315.933 457.601 317.016 461.77 317.254 466.029C317.051 470.234 315.965 474.349 314.067 478.106C312.166 481.831 309.628 485.194 306.568 488.045C303.549 490.895 300.044 493.181 296.219 494.795C292.204 496.464 287.893 497.305 283.545 497.271C268.322 497.271 255.711 490.295 245.712 476.343L241.062 470.305L238.213 473.118L204.279 505.071C212.67 520.391 224.616 533.472 239.113 543.213C252.238 552.08 267.707 556.833 283.545 556.865C294.26 556.902 304.897 555.048 314.967 551.389C324.759 547.87 333.924 542.805 342.114 536.388C350.222 529.994 357.173 522.256 362.662 513.51C365.091 509.601 367.246 505.528 369.111 501.321C373.554 511.171 379.612 520.21 387.035 528.062C395.043 536.489 404.555 543.345 415.082 548.276C425.807 553.317 437.407 556.234 449.24 556.865H459.214C471.096 556.228 482.739 553.272 493.486 548.164C504.012 543.232 513.525 536.376 521.533 527.949C529.516 519.515 535.928 509.723 540.468 499.033C541.293 497.008 542.081 494.945 542.756 492.883C553.615 512.151 569.367 528.211 588.421 539.439C607.475 550.666 629.154 556.663 651.268 556.824C673.382 556.985 695.146 551.303 714.361 540.353C733.576 529.404 749.56 513.575 760.697 494.465C771.835 475.356 777.732 453.645 777.791 431.526C777.851 409.407 772.071 387.664 761.036 368.495C750.002 349.326 734.103 333.411 714.947 322.358C695.792 311.305 674.058 305.507 651.944 305.548H652.057ZM485.199 477.018C483.37 481.263 480.679 485.082 477.297 488.233C473.914 491.383 469.915 493.797 465.551 495.32C462.66 496.38 459.627 497 456.552 497.158C451.269 497.553 445.97 496.665 441.104 494.57C437.179 492.848 433.587 490.449 430.492 487.482C427.403 484.498 424.921 480.945 423.181 477.018C421.466 473.076 420.561 468.829 420.518 464.529C420.44 459.867 421.348 455.24 423.181 450.953C424.88 446.948 427.367 443.326 430.492 440.301C433.62 437.324 437.251 434.924 441.216 433.213C446.045 431.124 451.304 430.223 456.552 430.588C459.639 430.777 462.682 431.409 465.589 432.463C470.304 434.137 474.602 436.811 478.187 440.301C484.287 446.449 487.791 454.707 487.974 463.367C488.057 468.065 487.11 472.725 485.199 477.018ZM719.474 459.129C715.783 467.609 710.529 475.318 703.989 481.856C696.062 489.587 686.522 495.465 676.054 499.071C670.166 501.193 664.004 502.456 657.756 502.821C646.148 503.712 634.496 501.795 623.785 497.233C615.193 493.495 607.325 488.278 600.537 481.819C593.787 475.369 588.383 467.644 584.639 459.091C580.804 450.15 578.827 440.523 578.827 430.794C578.827 421.065 580.804 411.438 584.639 402.497C588.334 393.796 593.741 385.927 600.537 379.357C607.316 372.897 615.187 367.691 623.785 363.98C634.513 359.385 646.195 357.455 657.831 358.355C664.062 358.754 670.207 360.016 676.091 362.105C686.536 365.735 696.059 371.611 703.989 379.319C710.594 385.962 715.853 393.82 719.474 402.46C723.309 411.401 725.286 421.028 725.286 430.757C725.286 440.485 723.309 450.113 719.474 459.054V459.129Z" fill="#A91F26"/>
<path d="M685.916 423.762L663.418 410.973L641.108 398.184C639.985 397.577 638.725 397.266 637.449 397.282C636.172 397.298 634.921 397.639 633.813 398.274C632.706 398.908 631.778 399.815 631.119 400.909C630.46 402.002 630.091 403.246 630.046 404.522V455.716C630.084 456.995 630.449 458.243 631.106 459.342C631.762 460.44 632.689 461.352 633.798 461.991C634.907 462.631 636.16 462.975 637.44 462.993C638.719 463.01 639.982 462.7 641.108 462.091L663.418 449.265L685.916 436.476C686.992 435.801 687.88 434.864 688.496 433.752C689.111 432.64 689.434 431.39 689.434 430.119C689.434 428.848 689.111 427.598 688.496 426.486C687.88 425.374 686.992 424.437 685.916 423.762Z" fill="#A91F26"/>
<path d="M138.511 363.305H123.025V315.337H111.138C108.397 315.327 105.77 314.233 103.832 312.294C101.893 310.355 100.799 307.728 100.79 304.986V303.335H160.783L167.683 315.337H138.511V363.305Z" fill="#A91F26"/>
<path d="M170.945 303.336C172.281 303.327 173.586 303.734 174.681 304.5C175.776 305.266 176.606 306.353 177.057 307.611L191.53 347.966C191.83 348.828 192.243 349.241 192.73 349.241C193.217 349.241 193.555 348.828 193.93 347.966L208.366 307.836C208.837 306.535 209.699 305.412 210.834 304.619C211.968 303.827 213.319 303.405 214.703 303.411H226.439L205.104 355.917C204.208 358.224 202.721 360.255 200.792 361.805C198.427 363.42 195.586 364.187 192.73 363.98C190.064 364.178 187.407 363.497 185.166 362.041C182.924 360.584 181.222 358.433 180.319 355.917L159.059 303.411L170.945 303.336Z" fill="#A91F26"/>
<path d="M637.096 294.335C607.842 294.257 579.478 304.388 556.891 322.982C534.304 341.576 518.909 367.468 513.359 396.196C511.584 393.878 509.695 391.65 507.697 389.521C499.887 381.169 490.625 374.307 480.362 369.268C469.815 364.041 458.355 360.908 446.616 360.042L479.087 292.984H412.569L356.325 409.735C355.05 412.286 353.85 414.911 352.576 417.574C350.202 412.514 347.352 407.691 344.064 403.172C334.485 389.812 321.551 379.216 306.568 372.456L345.114 292.984H227.189L204.279 352.616H250.511L216.765 423.199H268.21C272.562 423.159 276.876 424.014 280.883 425.712C284.713 427.3 288.221 429.575 291.232 432.426C294.321 435.321 296.862 438.752 298.731 442.552C300.602 446.386 301.685 450.556 301.918 454.816C301.694 459.005 300.609 463.103 298.731 466.854C296.84 470.586 294.301 473.951 291.232 476.793C288.233 479.668 284.723 481.958 280.883 483.544C276.868 485.212 272.557 486.054 268.21 486.019C252.986 486.019 240.375 479.043 230.376 465.092L225.727 459.091L222.877 461.904L189.13 493.858C197.521 509.177 209.468 522.258 223.964 532C237.089 540.866 252.559 545.619 268.397 545.651C279.115 545.694 289.755 543.827 299.819 540.138C309.604 536.605 318.767 531.541 326.966 525.136C335.065 518.734 342.014 510.997 347.514 502.259C349.943 498.337 352.098 494.252 353.963 490.032C358.396 499.899 364.454 508.951 371.886 516.81C379.904 525.226 389.414 532.081 399.933 537.025C410.801 542.166 422.573 545.122 434.579 545.726H444.553C456.435 545.089 468.078 542.133 478.825 537.025C489.344 532.081 498.854 525.226 506.872 516.81C514.855 508.376 521.267 498.584 525.807 487.894C526.632 485.869 527.42 483.806 528.095 481.744C538.98 500.982 554.748 517.007 573.805 528.201C592.863 539.395 614.536 545.362 636.636 545.499C658.737 545.635 680.482 539.937 699.676 528.98C718.871 518.023 734.836 502.194 745.958 483.092C757.081 463.99 762.968 442.291 763.025 420.185C763.082 398.079 757.306 376.35 746.282 357.191C735.258 338.032 719.375 322.121 700.237 311.065C681.099 300.009 659.384 294.199 637.283 294.222L637.096 294.335ZM470.238 465.804C468.414 470.049 465.725 473.866 462.341 477.011C458.958 480.156 454.956 482.56 450.59 484.069C447.706 485.158 444.67 485.791 441.591 485.944C436.309 486.339 431.009 485.451 426.143 483.356C422.187 481.629 418.559 479.231 415.419 476.268C412.33 473.284 409.847 469.731 408.107 465.804C406.393 461.849 405.487 457.589 405.445 453.278C405.367 448.615 406.274 443.989 408.107 439.701C409.808 435.708 412.294 432.099 415.419 429.088C418.556 426.112 422.184 423.701 426.143 421.962C430.98 419.903 436.234 419.016 441.479 419.374C444.567 419.545 447.613 420.177 450.515 421.249C455.237 422.909 459.538 425.585 463.114 429.088C469.214 435.235 472.718 443.493 472.9 452.153C473.015 456.843 472.107 461.501 470.238 465.804ZM704.513 447.915C700.792 456.312 695.54 463.942 689.028 470.417C681.104 478.161 671.564 484.053 661.093 487.669C655.205 489.791 649.043 491.054 642.795 491.42C631.184 492.301 619.531 490.372 608.824 485.794C600.219 482.081 592.346 476.861 585.576 470.38C578.855 463.992 573.454 456.347 569.678 447.877C565.757 438.891 563.777 429.178 563.866 419.374C563.883 409.818 565.813 400.361 569.542 391.563C573.27 382.764 578.722 374.801 585.576 368.143C592.364 361.684 600.232 356.467 608.824 352.729C619.556 348.146 631.237 346.229 642.87 347.141C649.106 347.502 655.257 348.766 661.131 350.891C671.589 354.492 681.118 360.372 689.028 368.106C695.633 374.734 700.892 382.579 704.513 391.208C708.374 400.082 710.353 409.659 710.325 419.336C710.443 429.168 708.462 438.911 704.513 447.915Z" fill="white"/>
<path d="M670.954 412.548L648.644 399.759L626.146 386.932C625.021 386.324 623.758 386.013 622.478 386.031C621.199 386.048 619.945 386.393 618.837 387.032C617.728 387.671 616.801 388.583 616.144 389.682C615.488 390.78 615.123 392.029 615.085 393.308V444.501C615.129 445.778 615.498 447.021 616.158 448.115C616.817 449.208 617.744 450.115 618.852 450.75C619.96 451.385 621.211 451.726 622.487 451.742C623.764 451.757 625.023 451.447 626.146 450.84L648.644 438.051L670.954 425.262C672.031 424.587 672.919 423.65 673.534 422.538C674.15 421.426 674.473 420.176 674.473 418.905C674.473 417.634 674.15 416.384 673.534 415.272C672.919 414.16 672.031 413.222 670.954 412.548Z" fill="white"/>
<path d="M123.55 352.091H108.026V304.086H96.1775C93.4393 304.086 90.8127 303 88.8729 301.067C86.9332 299.134 85.8385 296.511 85.8286 293.772V292.084H145.822L152.722 304.086H123.55V352.091Z" fill="white"/>
<path d="M155.984 292.084C157.323 292.084 158.63 292.499 159.724 293.271C160.818 294.043 161.647 295.135 162.096 296.397L176.569 336.714C176.869 337.577 177.282 337.989 177.769 337.989C178.257 337.989 178.594 337.577 178.969 336.714L193.405 296.585C193.875 295.28 194.735 294.151 195.869 293.353C197.003 292.554 198.355 292.124 199.742 292.122H211.441L190.105 344.628C189.236 346.939 187.759 348.974 185.831 350.516C183.453 352.099 180.619 352.851 177.769 352.654C175.108 352.854 172.454 352.179 170.213 350.729C167.972 349.28 166.267 347.137 165.358 344.628L144.098 292.122L155.984 292.084Z" fill="white"/>
<defs>
<linearGradient id="paint0_linear" x1="424.38" y1="39.6046" x2="424.38" y2="934.195" gradientUnits="userSpaceOnUse">
<stop stop-color="#EC2F26"/>
<stop offset="0.51" stop-color="#E72432"/>
<stop offset="1" stop-color="#B82032"/>
</linearGradient>
</defs>
</svg>
