<?xml version="1.0" encoding="iso-8859-1"?>
<!-- Uploaded to: SVG Repo, www.svgrepo.com, Generator: SVG Repo Mixer Tools -->
<svg fill="#000000" height="800px" width="800px" version="1.1" id="Layer_1" xmlns="http://www.w3.org/2000/svg" xmlns:xlink="http://www.w3.org/1999/xlink" 
	 viewBox="0 0 512 512" xml:space="preserve">
<g>
	<g>
		<g>
			<path d="M472.178,80.972H39.822C17.864,80.972,0,98.836,0,120.794v270.412c0,21.958,17.864,39.822,39.822,39.822h432.356
				c21.958,0,39.822-17.864,39.822-39.822V120.794C512,98.837,494.136,80.972,472.178,80.972z M98.751,396.895H39.822
				c-3.137,0-5.689-2.552-5.689-5.689v-43.44h64.618V396.895z M98.751,313.632H34.133v-40.565h64.618V313.632z M98.751,238.934
				H34.133v-40.565h64.618V238.934z M98.751,164.234H34.133v-43.44c0-3.136,2.552-5.689,5.689-5.689h58.929V164.234z
				 M379.114,396.895h-246.23v-281.79h246.23V396.895z M477.867,391.206c0,3.137-2.552,5.689-5.689,5.689h-58.93v-49.129h64.619
				V391.206z M477.867,313.632h-64.619v-40.565h64.619V313.632z M477.867,238.934h-64.619v-40.565h64.619V238.934z M477.867,164.234
				h-64.619v-49.129h58.93c3.137,0,5.689,2.553,5.689,5.689V164.234z"/>
			<path d="M212.076,327.145l109.804-55.938c12.407-6.32,12.404-24.095,0-30.414l-109.804-55.938
				c-11.332-5.774-24.814,2.471-24.814,15.208v111.874C187.262,324.763,200.827,332.873,212.076,327.145z M221.396,227.911
				l55.139,28.089l-55.139,28.089V227.911z"/>
		</g>
	</g>
</g>
</svg>